<?xml version="1.0" encoding="UTF-8"?>
<svg version="1.1" xmlns="http://www.w3.org/2000/svg" width="1080" height="1080">
<path d="M0 0 C1.37009717 -0.00702064 2.74019401 -0.01410747 4.11029053 -0.02125549 C8.46285473 -0.04065306 12.81536568 -0.04568919 17.16796875 -0.046875 C17.90902233 -0.04731686 18.65007591 -0.04775871 19.41358566 -0.04821396 C41.21256388 -0.05503364 62.71814779 0.20482739 84.35546875 3.203125 C85.65291016 3.36941406 86.95035156 3.53570312 88.28710938 3.70703125 C174.53572244 14.76251701 257.09731668 47.13001534 365.35546875 125.203125 C365.87061035 125.6347998 366.38575195 126.06647461 366.91650391 126.51123047 C380.50670353 137.90959003 393.29718436 150.06009152 405.85546875 162.578125 C406.78746094 163.50544434 407.71945312 164.43276367 408.6796875 165.38818359 C413.78028198 170.50073834 418.66556847 175.71357775 423.35546875 181.203125 C424.37679522 182.35994013 425.40019755 183.51492622 426.42578125 184.66796875 C433.95487632 193.20029225 440.97830414 202.02401612 447.79541016 211.1328125 C449.26025043 213.07676329 450.74624122 215.00181231 452.2421875 216.921875 C507.81025466 288.72779652 543.09526685 378.50975155 558.55859375 521.84765625 C558.56561439 523.21775342 558.57270122 524.58785026 558.57984924 525.95794678 C558.59924681 530.31051098 558.60428294 534.66302193 558.60546875 539.015625 C558.60591061 539.75667858 558.60635246 540.49773216 558.60680771 541.26124191 C558.61362739 563.06022013 558.35376636 584.56580404 555.35546875 606.203125 C555.18917969 607.50056641 555.02289062 608.79800781 554.8515625 610.13476562 C543.79607674 696.38337869 511.42857841 778.94497293 433.35546875 887.203125 C432.92379395 887.7182666 432.49211914 888.2334082 432.04736328 888.76416016 C420.64900372 902.35435978 408.49850223 915.14484061 395.98046875 927.703125 C395.05314941 928.63511719 394.12583008 929.56710937 393.17041016 930.52734375 C388.05785541 935.62793823 382.845016 940.51322472 377.35546875 945.203125 C376.19865362 946.22445147 375.04366753 947.2478538 373.890625 948.2734375 C365.3583015 955.80253257 356.53457763 962.82596039 347.42578125 969.64306641 C345.48183046 971.10790668 343.55678144 972.59389747 341.63671875 974.08984375 C269.83079723 1029.65791091 180.0488422 1064.9429231 36.7109375 1080.40625 C35.34084033 1080.41327064 33.97074349 1080.42035747 32.60064697 1080.42750549 C28.24808277 1080.44690306 23.89557182 1080.45193919 19.54296875 1080.453125 C18.43138838 1080.45378778 18.43138838 1080.45378778 17.29735184 1080.45446396 C-4.50162638 1080.46128364 -26.00721029 1080.20142261 -47.64453125 1077.203125 C-49.59069336 1076.95369141 -49.59069336 1076.95369141 -51.57617188 1076.69921875 C-137.82478494 1065.64373299 -220.38637918 1033.27623466 -328.64453125 955.203125 C-329.15967285 954.7714502 -329.67481445 954.33977539 -330.20556641 953.89501953 C-343.79576603 942.49665997 -356.58624686 930.34615848 -369.14453125 917.828125 C-370.07652344 916.90080566 -371.00851562 915.97348633 -371.96875 915.01806641 C-377.06934448 909.90551166 -381.95463097 904.69267225 -386.64453125 899.203125 C-387.66585772 898.04630987 -388.68926005 896.89132378 -389.71484375 895.73828125 C-397.24393882 887.20595775 -404.26736664 878.38223388 -411.08447266 869.2734375 C-412.54931293 867.32948671 -414.03530372 865.40443769 -415.53125 863.484375 C-471.09931716 791.67845348 -506.38432935 701.89649845 -521.84765625 558.55859375 C-521.85467689 557.18849658 -521.86176372 555.81839974 -521.86891174 554.44830322 C-521.88830931 550.09573902 -521.89334544 545.74322807 -521.89453125 541.390625 C-521.89497311 540.64957142 -521.89541496 539.90851784 -521.89587021 539.14500809 C-521.90268989 517.34602987 -521.64282886 495.84044596 -518.64453125 474.203125 C-518.47824219 472.90568359 -518.31195312 471.60824219 -518.140625 470.27148438 C-507.08513924 384.02287131 -474.71764091 301.46127707 -396.64453125 193.203125 C-396.21285645 192.6879834 -395.78118164 192.1728418 -395.33642578 191.64208984 C-383.93806622 178.05189022 -371.78756473 165.26140939 -359.26953125 152.703125 C-358.34221191 151.77113281 -357.41489258 150.83914062 -356.45947266 149.87890625 C-351.34691791 144.77831177 -346.1340785 139.89302528 -340.64453125 135.203125 C-339.48771612 134.18179853 -338.33273003 133.1583962 -337.1796875 132.1328125 C-328.647364 124.60371743 -319.82364013 117.58028961 -310.71484375 110.76318359 C-308.77089296 109.29834332 -306.84584394 107.81235253 -304.92578125 106.31640625 C-233.11985973 50.74833909 -143.3379047 15.4633269 0 0 Z " fill="#310304" transform="translate(521.64453125,-0.203125)"/>
<path d="M0 0 C1.37009717 -0.00702064 2.74019401 -0.01410747 4.11029053 -0.02125549 C8.46285473 -0.04065306 12.81536568 -0.04568919 17.16796875 -0.046875 C17.90902233 -0.04731686 18.65007591 -0.04775871 19.41358566 -0.04821396 C41.21256388 -0.05503364 62.71814779 0.20482739 84.35546875 3.203125 C85.65291016 3.36941406 86.95035156 3.53570312 88.28710938 3.70703125 C174.53572244 14.76251701 257.09731668 47.13001534 365.35546875 125.203125 C365.87061035 125.6347998 366.38575195 126.06647461 366.91650391 126.51123047 C380.50670353 137.90959003 393.29718436 150.06009152 405.85546875 162.578125 C406.78746094 163.50544434 407.71945312 164.43276367 408.6796875 165.38818359 C413.78028198 170.50073834 418.66556847 175.71357775 423.35546875 181.203125 C424.37679522 182.35994013 425.40019755 183.51492622 426.42578125 184.66796875 C433.95487632 193.20029225 440.97830414 202.02401612 447.79541016 211.1328125 C449.26025043 213.07676329 450.74624122 215.00181231 452.2421875 216.921875 C507.81025466 288.72779652 543.09526685 378.50975155 558.55859375 521.84765625 C558.56561439 523.21775342 558.57270122 524.58785026 558.57984924 525.95794678 C558.59924681 530.31051098 558.60428294 534.66302193 558.60546875 539.015625 C558.60591061 539.75667858 558.60635246 540.49773216 558.60680771 541.26124191 C558.61362739 563.06022013 558.35376636 584.56580404 555.35546875 606.203125 C555.18917969 607.50056641 555.02289062 608.79800781 554.8515625 610.13476562 C543.79607674 696.38337869 511.42857841 778.94497293 433.35546875 887.203125 C432.92379395 887.7182666 432.49211914 888.2334082 432.04736328 888.76416016 C420.64900372 902.35435978 408.49850223 915.14484061 395.98046875 927.703125 C395.05314941 928.63511719 394.12583008 929.56710937 393.17041016 930.52734375 C388.05785541 935.62793823 382.845016 940.51322472 377.35546875 945.203125 C376.19865362 946.22445147 375.04366753 947.2478538 373.890625 948.2734375 C365.3583015 955.80253257 356.53457763 962.82596039 347.42578125 969.64306641 C345.48183046 971.10790668 343.55678144 972.59389747 341.63671875 974.08984375 C269.83079723 1029.65791091 180.0488422 1064.9429231 36.7109375 1080.40625 C35.34084033 1080.41327064 33.97074349 1080.42035747 32.60064697 1080.42750549 C28.24808277 1080.44690306 23.89557182 1080.45193919 19.54296875 1080.453125 C18.43138838 1080.45378778 18.43138838 1080.45378778 17.29735184 1080.45446396 C-4.50162638 1080.46128364 -26.00721029 1080.20142261 -47.64453125 1077.203125 C-49.59069336 1076.95369141 -49.59069336 1076.95369141 -51.57617188 1076.69921875 C-137.82478494 1065.64373299 -220.38637918 1033.27623466 -328.64453125 955.203125 C-329.15967285 954.7714502 -329.67481445 954.33977539 -330.20556641 953.89501953 C-343.79576603 942.49665997 -356.58624686 930.34615848 -369.14453125 917.828125 C-370.07652344 916.90080566 -371.00851562 915.97348633 -371.96875 915.01806641 C-377.06934448 909.90551166 -381.95463097 904.69267225 -386.64453125 899.203125 C-387.66585772 898.04630987 -388.68926005 896.89132378 -389.71484375 895.73828125 C-397.24393882 887.20595775 -404.26736664 878.38223388 -411.08447266 869.2734375 C-412.54931293 867.32948671 -414.03530372 865.40443769 -415.53125 863.484375 C-471.09931716 791.67845348 -506.38432935 701.89649845 -521.84765625 558.55859375 C-521.85467689 557.18849658 -521.86176372 555.81839974 -521.86891174 554.44830322 C-521.88830931 550.09573902 -521.89334544 545.74322807 -521.89453125 541.390625 C-521.89497311 540.64957142 -521.89541496 539.90851784 -521.89587021 539.14500809 C-521.90268989 517.34602987 -521.64282886 495.84044596 -518.64453125 474.203125 C-518.47824219 472.90568359 -518.31195312 471.60824219 -518.140625 470.27148438 C-507.08513924 384.02287131 -474.71764091 301.46127707 -396.64453125 193.203125 C-396.21285645 192.6879834 -395.78118164 192.1728418 -395.33642578 191.64208984 C-383.93806622 178.05189022 -371.78756473 165.26140939 -359.26953125 152.703125 C-358.34221191 151.77113281 -357.41489258 150.83914062 -356.45947266 149.87890625 C-351.34691791 144.77831177 -346.1340785 139.89302528 -340.64453125 135.203125 C-339.48771612 134.18179853 -338.33273003 133.1583962 -337.1796875 132.1328125 C-328.647364 124.60371743 -319.82364013 117.58028961 -310.71484375 110.76318359 C-308.77089296 109.29834332 -306.84584394 107.81235253 -304.92578125 106.31640625 C-233.11985973 50.74833909 -143.3379047 15.4633269 0 0 Z M-78.51953125 100.703125 C-79.17813141 100.84656342 -79.83673157 100.99000183 -80.51528931 101.13778687 C-112.63558352 108.19627834 -143.87156797 119.31821416 -173.64453125 133.203125 C-174.63018066 133.66009766 -175.61583008 134.11707031 -176.63134766 134.58789062 C-215.25169095 152.68175266 -251.76179113 177.55394765 -282.9296875 206.671875 C-285.40274131 208.97768632 -287.91908129 211.21939565 -290.45703125 213.453125 C-299.33857211 221.42926606 -308.1004056 229.88515707 -315.80078125 239.01953125 C-317.34022217 240.84272506 -318.90470607 242.63337773 -320.48828125 244.41796875 C-342.13220338 268.90275853 -360.88504174 295.97647908 -376.33642578 324.76757812 C-377.24083638 326.45149006 -378.15104989 328.13229352 -379.06591797 329.81054688 C-397.58208944 363.82706762 -411.32911065 400.43352413 -419.64453125 438.265625 C-419.81406311 439.03193237 -419.98359497 439.79823975 -420.15826416 440.58776855 C-422.59422888 451.6597139 -424.74698065 462.75568661 -426.51953125 473.953125 C-426.7103125 475.137854 -426.90109375 476.32258301 -427.09765625 477.54321289 C-430.26884174 498.61407447 -431.05324666 519.73388491 -431.01953125 541.015625 C-431.01931976 542.25848267 -431.01910828 543.50134033 -431.01889038 544.78186035 C-430.98434263 565.21775633 -429.83794213 585.02979483 -426.64453125 605.203125 C-426.37165283 607.06130859 -426.37165283 607.06130859 -426.09326172 608.95703125 C-420.22792259 648.8350474 -408.33034805 688.49558213 -391.64453125 725.203125 C-391.1861084 726.21342773 -390.72768555 727.22373047 -390.25537109 728.26464844 C-375.65529833 760.13282757 -357.49668353 789.7964435 -335.64453125 817.203125 C-334.93425781 818.11320313 -334.22398437 819.02328125 -333.4921875 819.9609375 C-318.35984514 839.20902942 -301.62293604 858.37181084 -282.93359375 874.25390625 C-281.07545596 875.83617717 -279.24332575 877.43902141 -277.41796875 879.05859375 C-258.27652973 895.97284363 -237.56443193 911.08850263 -215.64453125 924.203125 C-214.7205957 924.75871094 -213.79666016 925.31429687 -212.84472656 925.88671875 C-158.17138819 958.59576004 -96.31777088 981.02782452 -32.64453125 987.203125 C-31.67064453 987.30463867 -30.69675781 987.40615234 -29.69335938 987.51074219 C69.92382184 997.57404571 169.77842018 975.13079788 301.16845703 889.73779297 C308.2147988 883.95407893 314.97687656 877.87654704 321.66015625 871.6796875 C323.83684072 869.67966148 326.04069757 867.74114194 328.29296875 865.828125 C336.2667631 858.90527008 343.80520843 851.25533619 350.6328125 843.203125 C352.72919154 840.76923369 354.91944255 838.43178075 357.10546875 836.078125 C362.36066795 830.30693192 367.18835662 824.26236698 371.93017578 818.06542969 C372.87834176 816.82654478 373.82983183 815.59019669 374.78466797 814.35644531 C413.53032141 764.26132007 439.72092364 707.34932038 455.35546875 646.203125 C455.61054199 645.23769775 455.86561523 644.27227051 456.12841797 643.27758789 C478.68054408 556.38986578 470.24600898 458.63641922 409.28564453 317.48925781 C402.393692 305.78779556 395.132823 294.33521552 387.35546875 283.203125 C386.57308838 282.07704834 386.57308838 282.07704834 385.77490234 280.92822266 C378.89346391 271.06778866 371.63046944 261.75676573 363.68408203 252.73779297 C361.7363569 250.48799506 359.89453452 248.15729091 358.04296875 245.828125 C347.09187183 232.35290955 334.64070584 219.2582056 321.42578125 207.99609375 C318.97272765 205.87165676 316.60843728 203.66123863 314.23046875 201.453125 C308.41599708 196.15263977 302.29915247 191.31618683 296.0625 186.52490234 C294.50117417 185.31594668 292.95852505 184.08296935 291.41796875 182.84765625 C273.32938442 168.48743704 253.475149 156.46867332 233.35546875 145.203125 C232.21053955 144.56020508 232.21053955 144.56020508 231.04248047 143.90429688 C195.33285218 124.01373081 155.38838831 109.54169869 115.35546875 101.203125 C114.62908203 101.04537598 113.90269531 100.88762695 113.15429688 100.72509766 C102.81940258 98.48150984 92.43590282 96.66485754 81.98046875 95.078125 C80.95518066 94.91957031 79.92989258 94.76101562 78.87353516 94.59765625 C59.69020627 91.78153765 40.66383086 90.85676427 21.29296875 90.953125 C19.6202742 90.95777771 19.6202742 90.95777771 17.91378784 90.96252441 C-14.75117959 91.06880797 -46.55168124 93.72694999 -78.51953125 100.703125 Z " fill="#000000" transform="translate(521.64453125,-0.203125)"/>
<path d="M0 0 C72.6 0 145.2 0 220 0 C220 150.15 220 300.3 220 455 C147.4 455 74.8 455 0 455 C0 304.85 0 154.7 0 0 Z " fill="#8A0000" transform="translate(536,254)"/>
<path d="M0 0 C28.63129291 11.45251716 28.63129291 11.45251716 39.3125 16.3125 C50.6851709 21.44964528 62.14383723 26.29119249 73.75 30.875 C80.76726648 33.66171684 87.71245913 36.57334426 94.61523438 39.63183594 C98.90497226 41.53082431 103.22020755 43.32733909 107.5859375 45.04296875 C112.41903291 46.95900172 117.2043032 48.99264091 122 51 C123.99984629 51.83370215 125.99984553 52.6670375 128 53.5 C129.50626953 54.12841797 129.50626953 54.12841797 131.04296875 54.76953125 C132.89818152 55.54151543 134.75475344 56.31024992 136.61328125 57.07421875 C144.64214819 60.38569064 152.5987424 63.85772156 160.55200195 67.34643555 C169.28045804 71.16229646 178.07934113 74.65475293 187 78 C187 95.16 187 112.32 187 130 C182.05 131.98 177.1 133.96 172 136 C166.98531072 138.29963575 166.98531072 138.29963575 161.984375 140.62890625 C158.53876082 142.21190439 155.05011021 143.62752153 151.51953125 145.0078125 C145.73065402 147.28746338 140.00692454 149.73347305 134.2734375 152.1484375 C129.87364404 153.99511137 125.46892803 155.82243899 121.02734375 157.56640625 C109.06868113 162.27121665 97.25552564 167.28408461 85.45266724 172.3637085 C72.34144392 178.00639867 59.19564338 183.5571137 46 189 C45.18885742 189.33467285 44.37771484 189.6693457 43.54199219 190.01416016 C37.61400041 192.45862969 31.6857179 194.90247105 25.75 197.328125 C19.3304427 199.96950535 13.05550264 202.82593805 6.8125 205.86328125 C4 207 4 207 0 207 C0 187.2 0 167.4 0 147 C3.3 146.01 6.6 145.02 10 144 C12.90886954 142.96205649 15.8001941 141.90602271 18.6875 140.8125 C25.92495472 138.10718132 33.1956494 135.51890975 40.5 133 C47.46685551 130.59525549 54.40715601 128.13858688 61.3125 125.5625 C69.94005499 122.34569685 78.63600941 119.34203619 87.34423828 116.3515625 C94.92055896 113.74205303 102.45538933 111.03977737 109.95117188 108.20703125 C114.25912713 106.59006184 118.5582634 105.20503208 123 104 C122.08605469 103.68289063 121.17210937 103.36578125 120.23046875 103.0390625 C112.24163745 100.24989828 104.29130972 97.37329455 96.36621094 94.4074707 C84.65944926 90.02868837 72.9045344 85.89837868 61.03125 81.99609375 C51.38964612 78.8227677 41.81321644 75.45902344 32.22802734 72.12011719 C28.9738628 70.99093046 25.71602557 69.87297595 22.45703125 68.7578125 C21.41232666 68.39880859 20.36762207 68.03980469 19.29125977 67.66992188 C17.32277804 66.99358714 15.35327559 66.32021296 13.38256836 65.65039062 C12.49835205 65.34552734 11.61413574 65.04066406 10.703125 64.7265625 C9.55312012 64.33331787 9.55312012 64.33331787 8.37988281 63.93212891 C5.50686845 62.80685512 2.75977573 61.37988787 0 60 C0 40.2 0 20.4 0 0 Z " fill="#FDFDFD" transform="translate(248,356)"/>
</svg>
